# xmcd CD database file
#
# Track frame offsets:
#	150
#	12861
#	25316
#	40368
#	49149
#	73967
#	91068
#	110080
#	133530
#	157345
#	176908
#	194659
#	213163
#	222247
#	238603
#
# Disc length: 3323 seconds
#
# Revision: 0
# Processed by: cddbd v1.5.1PL0 Copyright (c) Steve Scherf et al.
# Submitted via: CDex 1.51
#
DISCID=e30cf90f
DTITLE=Archie Edwards Blues Heritage Foundation - Archie's Barbershop Blues
DYEAR=1900
DGENRE=Blues
TTITLE0=John Henry
TTITLE1=What's The Matter With The Mill?
TTITLE2=That Won't Do
TTITLE3=Nap's Lament
TTITLE4=Since I Fell For You
TTITLE5=Get Some Insurance
TTITLE6=Rocks And Gravel
TTITLE7=Tin Pan Alley
TTITLE8=Angel From Montgomery
TTITLE9=Red Rooster
TTITLE10=Diving Duck
TTITLE11=Pretty Papa
TTITLE12=Jay's Shuffle
TTITLE13=Early Morning Blues
TTITLE14=Song For Mr. Bones
EXTD=
EXTT0=
EXTT1=
EXTT2=
EXTT3=
EXTT4=
EXTT5=
EXTT6=
EXTT7=
EXTT8=
EXTT9=
EXTT10=
EXTT11=
EXTT12=
EXTT13=
EXTT14=
PLAYORDER=
